<?xml version="1.0" standalone="no"?> <!DOCTYPE svg PUBLIC "-//W3C//DTD SVG 20010904//EN" "http://www.w3.org/TR/2001/REC-SVG-20010904/DTD/svg10.dtd"> <svg version="1.0" xmlns="http://www.w3.org/2000/svg" width="600.000000pt" height="591.000000pt" viewBox="0 0 600.000000 591.000000" preserveAspectRatio="xMidYMid meet"> <g transform="translate(0.000000,591.000000) scale(0.100000,-0.100000)" fill="#000000" stroke="none"> <path d="M4180 5615 c-94 -18 -229 -64 -337 -116 -99 -47 -176 -118 -221 -204 -18 -33 -43 -73 -56 -90 l-24 -30 -149 -1 c-119 -1 -172 -7 -268 -28 l-119 -26 -121 21 c-121 21 -147 22 -470 6 -38 -2 -42 1 -100 73 -110 137 -197 217 -277 255 -117 55 -215 77 -348 78 -171 0 -271 -39 -395 -155 -152 -141 -265 -369 -268 -538 -2 -126 46 -220 135 -266 47 -24 137 -29 192 -11 l46 16 -20 -40 c-39 -76 -42 -125 -15 -286 14 -82 25 -167 25 -190 0 -56 11 -81 59 -137 49 -57 51 -77 21 -250 -24 -134 -60 -250 -135 -426 -112 -261 -121 -391 -46 -620 45 -135 131 -321 204 -440 l45 -74 -19 -24 c-58 -75 30 -368 178 -590 72 -109 231 -274 349 -363 219 -164 461 -277 709 -329 55 -12 106 -23 112 -25 9 -3 6 -15 -11 -40 -14 -20 -34 -64 -45 -98 -82 -253 -28 -344 226 -378 150 -20 310 4 380 57 17 13 39 43 48 68 31 80 -10 293 -70 364 l-24 29 72 17 c110 26 285 105 378 172 192 138 309 293 379 503 36 107 41 173 14 202 -17 19 -17 23 24 104 130 258 211 677 199 1030 -6 161 -12 213 -52 484 -23 155 -18 307 13 376 13 27 53 81 92 120 72 75 76 85 83 175 3 40 18 84 55 160 86 179 87 189 84 472 -1 135 1 256 6 267 7 19 13 17 87 -39 80 -60 164 -100 210 -100 40 0 104 30 124 59 51 72 47 177 -14 308 -80 174 -243 323 -462 425 -168 77 -332 102 -483 73z m295 -111 c87 -22 268 -114 355 -181 122 -95 209 -220 240 -345 13 -52 8 -88 -16 -112 -47 -47 -115 -5 -395 242 -137 121 -239 172 -345 172 -109 0 -259 -78 -340 -178 -43 -52 -114 -179 -114 -202 0 -5 34 -47 76 -92 100 -109 163 -199 217 -312 24 -50 51 -107 60 -126 l17 -35 -6 50 c-20 155 -97 328 -202 451 l-65 77 32 63 c38 73 116 151 192 190 46 25 66 29 134 29 68 0 88 -5 135 -29 66 -34 190 -126 190 -140 0 -6 -5 -29 -10 -51 -24 -98 -29 -183 -17 -343 14 -208 4 -267 -79 -444 -48 -101 -59 -135 -62 -188 -5 -64 -5 -64 -68 -126 -77 -74 -119 -156 -134 -264 -12 -83 -7 -165 21 -350 32 -215 49 -381 49 -485 0 -172 -42 -472 -92 -654 -139 -510 -494 -843 -961 -903 -51 -6 -94 -13 -96 -14 -2 -2 8 -17 22 -33 46 -55 69 -136 65 -226 -3 -74 -11 -101 -56 -187 -2 -5 11 -8 28 -8 63 0 99 -63 120 -209 12 -87 8 -106 -28 -125 -102 -53 -403 -40 -452 19 -18 22 -14 101 10 177 40 131 122 212 227 224 48 6 51 8 62 44 31 103 0 224 -73 287 -41 37 -45 38 -176 54 -341 41 -666 195 -895 425 -314 317 -627 839 -691 1153 -29 145 -13 218 110 516 78 190 126 390 127 533 1 81 -15 124 -65 171 -32 31 -36 40 -36 86 0 28 -9 100 -20 160 -22 118 -25 190 -11 228 5 13 28 43 50 66 45 47 46 49 29 86 -11 24 -8 29 34 70 56 54 74 100 58 150 -6 19 -16 35 -21 35 -6 0 -57 -44 -113 -98 -116 -112 -165 -138 -242 -129 -150 17 -167 227 -37 461 81 146 212 267 325 301 60 17 203 20 280 4 170 -34 249 -84 373 -236 142 -176 148 -179 297 -157 130 19 277 15 403 -11 89 -19 134 -17 275 14 72 16 131 21 246 21 142 0 152 1 182 23 41 31 62 58 106 139 64 116 151 176 352 244 163 55 281 63 419 28z m-2697 -3699 c186 -234 426 -433 642 -534 181 -84 395 -142 577 -157 72 -6 86 -10 103 -31 24 -31 40 -109 31 -153 l-7 -35 -105 1 c-355 4 -783 196 -1064 478 -61 61 -134 146 -163 188 -97 143 -172 317 -187 438 l-7 55 62 -90 c34 -49 87 -121 118 -160z m2343 -232 c-17 -65 -80 -198 -129 -269 -45 -67 -164 -185 -234 -232 -73 -50 -224 -119 -318 -146 l-85 -24 -6 88 c-4 48 -12 97 -18 108 -13 25 -11 27 62 42 255 52 506 210 679 427 28 35 53 62 56 59 2 -3 -1 -27 -7 -53z"/> <path d="M1485 5226 c-27 -13 -59 -33 -69 -45 l-19 -21 58 20 c99 34 158 23 233 -45 61 -55 110 -146 151 -280 42 -141 42 -140 -10 -220 -74 -112 -119 -235 -119 -325 0 -31 4 -26 38 50 42 94 106 198 170 275 50 59 51 69 17 201 -49 192 -145 343 -249 394 -58 28 -137 26 -201 -4z"/> <path d="M2310 4389 c-32 -13 -87 -66 -106 -101 -31 -59 -2 -136 69 -185 35 -24 50 -28 111 -28 58 0 77 4 104 23 94 67 84 223 -18 281 -41 23 -116 27 -160 10z"/> <path d="M3779 4377 c-106 -70 -97 -237 15 -288 54 -25 93 -24 146 4 59 30 82 64 88 130 5 67 -13 106 -70 147 -53 39 -127 42 -179 7z"/> <path d="M3150 3854 c-105 -28 -187 -99 -231 -200 -49 -111 4 -295 117 -410 39 -39 82 -66 178 -113 134 -65 156 -86 156 -151 0 -62 -23 -93 -81 -114 -30 -10 -110 -42 -179 -72 -161 -68 -266 -90 -357 -74 -104 18 -206 77 -318 185 -95 92 -126 115 -155 115 -24 0 -31 -5 -36 -26 -21 -82 139 -373 267 -489 22 -20 84 -64 137 -99 53 -34 102 -73 109 -87 6 -13 27 -58 47 -100 44 -95 99 -147 210 -200 242 -116 519 -68 622 107 14 24 30 44 35 44 16 0 9 -83 -10 -125 -26 -57 -119 -141 -198 -178 -59 -27 -81 -32 -168 -35 -120 -5 -193 11 -311 68 -115 56 -178 117 -244 237 -66 121 -94 152 -195 213 -44 27 -113 76 -152 109 -40 34 -73 57 -73 52 0 -24 90 -139 153 -194 111 -98 129 -119 187 -229 75 -141 137 -202 272 -267 176 -86 322 -110 467 -76 129 31 268 132 326 236 28 51 30 59 27 149 -10 261 -8 288 29 395 34 100 34 100 84 125 170 84 259 326 211 570 -17 85 -92 262 -81 192 42 -278 24 -452 -58 -576 -90 -135 -164 -145 -322 -41 -44 29 -100 62 -124 74 l-43 22 7 57 c11 90 28 110 145 171 59 31 122 73 146 97 75 75 124 198 124 314 0 102 -22 154 -100 231 -95 96 -141 109 -384 108 -126 0 -198 -5 -236 -15z m457 -69 c143 -42 255 -244 178 -320 -26 -27 -54 -31 -86 -14 -17 9 -19 17 -14 50 5 31 3 45 -11 60 -40 44 -111 4 -121 -68 -12 -88 38 -137 135 -135 65 2 67 -9 8 -74 -50 -57 -223 -155 -231 -132 -2 7 -5 70 -7 140 -2 85 -7 131 -15 140 -10 9 -13 9 -13 -2 0 -29 -40 -283 -45 -288 -7 -7 -179 73 -237 110 -75 47 -128 119 -76 102 40 -12 143 -7 175 10 47 24 73 63 73 108 0 70 -32 107 -92 108 -50 0 -78 -28 -78 -77 0 -49 -23 -73 -73 -73 -31 0 -46 7 -73 34 -29 29 -34 41 -34 80 0 112 92 216 217 245 67 16 363 13 420 -4z m-433 -1185 c43 -26 104 -113 125 -178 8 -23 18 -42 23 -42 12 0 10 53 -7 136 -9 41 -13 78 -10 83 20 33 206 38 279 7 68 -28 79 -75 47 -187 -45 -158 -85 -207 -193 -240 -133 -41 -339 -8 -388 60 -11 16 -35 66 -54 111 -19 45 -43 94 -52 108 -16 24 -17 25 -30 7 -8 -10 -14 -43 -14 -72 0 -29 -3 -53 -8 -53 -17 0 -84 64 -107 104 -23 40 -65 148 -65 168 0 5 33 6 73 3 39 -3 95 -1 122 4 28 5 89 9 136 7 69 -2 92 -6 123 -26z"/> <path d="M2245 3260 c-168 -53 -235 -211 -159 -370 18 -36 46 -81 62 -100 l31 -35 -20 70 c-47 160 -20 278 88 380 31 30 61 55 65 55 4 0 8 5 8 10 0 13 -4 12 -75 -10z"/> </g> </svg>